<?xml version="1.0" standalone="no"?>
<!DOCTYPE svg PUBLIC "-//W3C//DTD SVG 20010904//EN"
 "http://www.w3.org/TR/2001/REC-SVG-20010904/DTD/svg10.dtd">
<svg version="1.0" xmlns="http://www.w3.org/2000/svg"
 width="690.000000pt" height="690.000000pt" viewBox="0 0 690.000000 690.000000"
 preserveAspectRatio="xMidYMid meet">
<metadata>
Created by potrace 1.11, written by Peter Selinger 2001-2013
</metadata>
<g transform="translate(0.000000,690.000000) scale(0.100000,-0.100000)"
fill="#000000" stroke="none">
<path d="M3206 6889 c-829 -60 -1601 -413 -2191 -1004 -471 -470 -784 -1039
-930 -1690 -165 -738 -78 -1522 247 -2216 259 -553 703 -1065 1215 -1402 716
-471 1563 -660 2398 -538 743 109 1409 445 1940 976 471 470 784 1039 930
1690 165 738 78 1522 -247 2216 -259 553 -703 1065 -1215 1402 -643 423 -1391
620 -2147 566z m313 -1309 c84 -14 173 -60 237 -124 90 -91 131 -202 121 -330
-13 -173 -110 -304 -274 -372 -47 -19 -76 -24 -153 -24 -77 0 -106 5 -153 24
-164 68 -261 199 -274 372 -19 242 164 444 417 463 8 0 44 -4 79 -9z m1526
-1019 c47 -22 99 -74 114 -114 13 -35 14 -127 2 -160 -16 -40 -73 -99 -116
-118 -37 -17 -77 -19 -510 -19 -526 0 -517 1 -582 -73 -42 -49 -53 -91 -53
-219 0 -117 10 -206 40 -373 109 -592 298 -1721 293 -1748 -21 -109 -102 -177
-213 -177 -86 0 -179 65 -200 140 -6 19 -53 280 -105 580 -95 544 -122 675
-152 734 -39 78 -97 110 -151 82 -36 -18 -93 -124 -117 -215 -9 -35 -59 -307
-111 -605 -52 -297 -99 -557 -104 -576 -20 -74 -114 -140 -200 -140 -111 0
-192 68 -213 177 -5 27 158 999 292 1748 32 174 41 259 41 373 0 128 -11 170
-53 219 -65 74 -56 73 -582 73 -433 0 -473 2 -510 19 -43 19 -100 78 -116 118
-12 33 -11 125 2 160 15 40 67 92 114 114 38 18 101 19 1595 19 1494 0 1557
-1 1595 -19z"/>
</g>
</svg>
